<svg width="204" height="263" viewBox="0 0 204 263" fill="none" xmlns="http://www.w3.org/2000/svg">
<g clip-path="url(#clip0_212_986)">
<path d="M36.8567 135.67H0V137.244H36.8567V135.67Z" fill="white"/>
<path d="M36.8567 145.238H0V146.812H36.8567V145.238Z" fill="white"/>
<path d="M203.997 135.67H167.141V137.244H203.997V135.67Z" fill="white"/>
<path d="M203.997 145.238H167.141V146.812H203.997V145.238Z" fill="white"/>
<path d="M25.8751 206.977C29.6916 204.782 33.4944 202.615 37.2834 200.475C41.0862 198.335 44.7374 196.305 48.2784 194.386L40.1768 170.668C36.2087 171.317 32.0753 171.952 27.7627 172.601C23.4501 173.236 19.1238 173.871 14.7699 174.478C12.7307 174.768 3.08594 176.135 3.08594 176.135L7.86697 190.148C8.81767 189.899 10.8155 189.499 13.8329 188.919C13.9983 189.389 16.1477 195.684 16.2992 196.14C13.5711 197.534 11.7386 198.445 10.8431 198.832L15.6241 212.845C15.6241 212.845 24.0839 207.999 25.8751 206.977ZM21.4247 187.511C27.5147 186.407 35.7678 184.943 36.6221 184.764L36.8425 185.399C36.0572 185.785 28.6445 189.692 23.1608 192.564L21.4385 187.511H21.4247Z" fill="white"/>
<path d="M190.193 212.845L194.974 198.832C194.079 198.445 192.246 197.534 189.518 196.14C189.684 195.67 191.833 189.375 191.985 188.919C195.002 189.485 197 189.899 197.951 190.148L202.732 176.135C202.732 176.135 193.087 174.768 191.048 174.478C186.694 173.871 182.367 173.25 178.055 172.601C173.742 171.966 169.609 171.317 165.641 170.668L157.539 194.386C161.066 196.305 164.731 198.349 168.534 200.475C172.337 202.615 176.14 204.782 179.942 206.977C181.734 207.999 190.193 212.845 190.193 212.845ZM182.671 192.578C177.187 189.706 169.76 185.813 168.989 185.413L169.209 184.777C170.063 184.943 178.317 186.42 184.407 187.525L182.684 192.578H182.671Z" fill="white"/>
<path d="M70.2031 242.444L58.4503 234.105L58.9463 233.387C61.4953 235.196 63.7136 236.397 65.5874 236.977C67.4612 237.557 69.1835 237.501 70.7542 236.825C72.3249 236.135 73.8681 234.726 75.3699 232.6C76.8993 230.447 77.5606 228.417 77.3677 226.512C77.1749 224.621 76.2655 222.757 74.6672 220.948C73.0689 219.14 70.7267 217.138 67.6541 214.957L51.5336 203.525L47.5793 209.379C46.5046 210.953 45.4299 212.513 44.3414 214.087C43.2529 215.647 42.1644 217.207 41.0622 218.767C39.8497 220.479 38.6372 222.177 37.4247 223.875C36.2123 225.559 34.986 227.258 33.746 228.956C32.9744 229.991 31.8032 231.565 30.2188 233.691L42.0818 242.113C42.1369 242.03 42.2196 241.905 42.3436 241.74C42.4676 241.574 42.6054 241.381 42.7431 241.174C43.7352 239.71 48.9984 232.324 48.9984 232.324L55.0746 236.632L48.158 246.434L60.9717 255.518C61.2059 254.621 70.1755 242.485 70.1755 242.485L70.2031 242.444ZM58.6707 228.362C57.7614 228.417 56.8245 228.086 55.86 227.409L53.4488 225.697L57.6374 219.775L59.8832 221.362C60.5859 221.859 61.1233 222.37 61.4953 222.895C61.8673 223.406 62.0326 223.972 62.0051 224.593C61.9775 225.214 61.7157 225.891 61.1921 226.622C60.4068 227.727 59.5663 228.307 58.6707 228.362Z" fill="white"/>
<path d="M143.125 256.181L139.667 250.631C136.69 245.951 134.541 242.623 133.232 240.621L128.051 232.794C127.197 231.537 126.329 230.281 125.461 229.025C124.593 227.755 123.739 226.512 122.898 225.297L140.59 213.673C140.59 213.673 157.523 231.165 157.992 231.703L158.639 231.275L144.916 210.829L156.021 203.525C159.218 208.647 162.538 213.838 165.969 219.098C168.036 222.26 169.648 224.69 170.805 226.402L176.22 234.423L158.405 246.13C158.405 246.13 141.747 228.5 141.155 227.893L140.466 228.348C140.466 228.348 150.923 244.225 154.161 248.933L143.097 256.208L143.125 256.181Z" fill="white"/>
<path d="M84.8359 263.001C84.9324 260.585 85.0013 257.713 85.0564 254.386C85.1115 251.059 85.1253 247.773 85.1253 244.515C85.1253 241.45 85.0977 238.233 85.0564 234.878C85.0151 231.524 84.9324 228.583 84.8359 226.07H115.465V236.521H99.2893V240.925L114.115 240.442V248.629L99.2893 248.146V252.55H115.52V263.001H84.8497H84.8359Z" fill="white"/>
<path d="M36.8567 111.551C29.444 111.482 23.2989 111.454 18.4077 111.454C13.5164 111.454 7.46778 111.482 0 111.551V91.0217C0 87.5427 0.523572 84.6435 1.57071 82.3517C2.61786 80.0599 4.21613 78.348 6.35175 77.2021C8.48737 76.0563 11.2017 75.4902 14.4947 75.4902C19.7166 75.4902 23.5883 76.8432 26.1097 79.5629C28.6311 82.2689 29.8987 85.9412 29.8987 90.5523V97.0825C30.6014 97.0825 31.6899 97.0825 33.1366 97.0549C34.5833 97.0411 35.8233 97.0134 36.8567 96.9858V111.551ZM21.0669 94.1694C21.0669 92.9822 20.626 92.0296 19.7442 91.3393C18.8624 90.649 17.3468 90.3038 15.2249 90.3038C13.1031 90.3038 11.7252 90.649 10.9261 91.3393C10.127 92.0296 9.71363 93.0374 9.71363 94.3627V97.1653H21.0669V94.1694Z" fill="white"/>
<path d="M39.5987 72.6187C34.0185 68.6288 28.9757 65.1084 24.4978 62.0711C19.9923 59.0062 14.853 55.61 9.09375 51.8962L17.3882 39.6367C21.8248 42.7982 26.3716 45.9736 31.0286 49.1489C33.9358 51.1231 35.2172 51.9653 36.7604 52.9179L44.5037 41.3072L54.2587 50.9713L39.5987 72.6325V72.6187Z" fill="white"/>
<path d="M91.8188 22.2135C89.5591 18.4307 87.3271 14.6617 85.1225 10.8928C82.9318 7.13759 80.8375 3.50667 78.8397 0L55.3203 8.54577C56.0368 12.508 56.7532 16.636 57.4697 20.9434C58.1862 25.2508 58.8889 29.572 59.5778 33.9208C59.9085 35.964 61.4378 45.6005 61.4378 45.6005L75.3263 40.5476C75.0645 39.595 74.6236 37.6069 74.0035 34.5973C74.4582 34.4316 80.7135 32.1536 81.1682 31.988C82.6149 34.6939 83.5518 36.5163 83.9652 37.4137L97.8536 32.3607C97.8536 32.3607 92.8659 23.9806 91.805 22.1997L91.8188 22.2135ZM72.4879 27.0317C71.2755 20.9572 69.6496 12.7151 69.4705 11.8592L70.1043 11.6245C70.5039 12.3976 74.5409 19.7699 77.5032 25.2093L72.4879 27.0317Z" fill="white"/>
<path d="M167.141 80.8047C169.552 80.9013 172.418 80.9704 175.738 81.0256C179.059 81.0808 182.338 81.0946 185.59 81.0946C188.648 81.0946 191.859 81.067 195.207 81.0256C198.555 80.9842 201.49 80.9013 203.997 80.8047V111.495H193.567V95.2869H189.172L189.654 110.142H181.484L181.966 95.2869H177.571V111.55H167.141V80.8185V80.8047Z" fill="white"/>
<path d="M141.94 36.7236C143.028 33.5897 143.938 31.0494 145.012 28.0535L126.577 21.6201L125.764 23.9532L131.193 25.8446L129.801 29.8345C129.801 29.8345 129.264 29.6412 127.101 28.8957C121.824 27.0595 122.416 23.5805 124.304 18.1686C124.91 16.4291 125.378 15.0761 125.861 14.1511C127.431 11.0724 128.892 10.893 129.746 11.0586C133.081 11.6799 131.565 17.216 131.014 19.0798L144.778 23.8842C146.101 19.701 146.652 16.2634 146.432 13.5989C146.211 10.9206 145.081 8.65643 143.028 6.76504C140.975 4.88746 137.751 3.17554 133.37 1.65691C129.36 0.248718 125.93 -0.24829 123.078 0.138272C120.225 0.524833 117.8 1.85019 115.803 4.08672C113.791 6.32326 112.041 9.59523 110.553 13.8888C109.175 17.8511 108.486 21.3301 108.5 24.3398C108.5 27.3494 109.258 29.8897 110.76 31.9744C112.248 34.0452 114.521 35.6191 117.566 36.6822C119.881 37.4829 121.948 37.4553 123.78 36.5993C125.613 35.7434 127.115 33.9762 128.286 31.2979L129.112 31.5878L126.233 38.9877L139.598 43.6541C140.066 42.3149 140.493 41.0724 140.865 39.9265C141.251 38.7806 141.609 37.7176 141.954 36.7374L141.94 36.7236Z" fill="white"/>
<path d="M186.391 42.0248C186.391 42.0248 174.969 49.977 172.02 52.0064C165.048 56.8108 163.629 56.9351 162.458 55.2232C161.287 53.5251 161.893 52.2273 168.865 47.4229C171.813 45.3934 183.291 37.5242 183.291 37.5242L175.065 25.5684C172.048 27.8463 169.016 30.0276 165.971 32.1399L161.838 34.9977C161.094 35.5085 160.309 36.0469 159.496 36.613C158.669 37.179 157.815 37.7727 156.905 38.3939C153.888 40.4786 151.752 42.5909 150.526 44.7308C149.3 46.8707 148.9 49.1624 149.314 51.6199C149.727 54.0773 151.656 57.8048 153.929 61.1044C156.203 64.404 158.986 67.5379 161.122 68.7942C163.257 70.0644 165.544 70.4923 167.983 70.1058C170.422 69.7192 173.15 68.4767 176.167 66.392C177.063 65.7708 177.931 65.1771 178.758 64.6111C179.584 64.0451 180.356 63.5066 181.1 62.9958L185.233 60.138C188.278 58.0257 191.406 55.9687 194.603 53.9668L186.377 42.011L186.391 42.0248Z" fill="white"/>
<path d="M128.361 107.381C118.661 104.717 103.905 112.089 91.6007 110.446L91.4767 109.342C107.721 109.48 118.055 100.354 129.229 103.392L132.673 94.8182C132.673 94.8182 111.62 77.2159 96.299 88.2605L93.2816 104.372C93.2816 104.372 69.8173 95.6328 68.5911 106.802C67.9297 112.766 76.5687 114.547 86.9436 115.265C83.9538 120.552 66.3866 122.416 61.3438 144.906L63.2727 145.651C72.8485 135.476 83.5404 136.456 92.8269 138.914C92.8269 150.483 78.7869 163.861 78.7869 163.861H129.849C147.278 163.861 119.97 138.003 121.513 118.826C132.081 121.684 137.606 124.307 140.307 122.402C143.159 120.4 138.502 110.198 128.333 107.409L128.361 107.381ZM96.3404 135.062C86.7645 132.135 71.4018 133.157 65.4772 140.736C72.5592 121.008 87.6601 123.01 90.9944 115.706L92.7029 115.789C92.4411 116.521 92.2758 117.294 92.2758 118.109C92.2758 121.974 95.4035 125.108 99.2614 125.108C103.119 125.108 106.247 121.974 106.247 118.109C106.247 117.515 106.15 116.935 106.013 116.383L110.408 116.576C110.408 116.576 112.502 124.086 113.15 128.573C113.852 133.433 110.435 139.356 96.3404 135.048V135.062Z" fill="white"/>
</g>
<defs>
<clipPath id="clip0_212_986">
<rect width="204" height="263" fill="white"/>
</clipPath>
</defs>
</svg>
