<svg width="136" height="53" viewBox="0 0 136 53" fill="none" xmlns="http://www.w3.org/2000/svg">
<g clip-path="url(#clip0_212_1008)">
<path d="M6.37861 0.281757C6.87436 0.46349 7.35358 0.74435 7.79976 1.12434L6.60996 2.52864C6.03159 2.033 5.42017 1.78519 4.7757 1.78519C4.13123 1.78519 3.55286 2.08257 3.15626 2.66081C2.75966 3.23905 2.56136 4.14772 2.56136 5.33724C2.56136 6.52677 2.75966 7.41891 3.15626 7.99716C3.55286 8.5754 4.1147 8.85626 4.82527 8.85626C5.18882 8.85626 5.51932 8.79017 5.81677 8.64148C6.11422 8.49279 6.44471 8.27802 6.80826 8.01368L7.89891 9.4345C7.51883 9.81449 7.05614 10.1284 6.51081 10.3762C5.96549 10.624 5.35407 10.7562 4.69307 10.7562C3.75115 10.7562 2.92491 10.5414 2.21434 10.1284C1.52029 9.71536 0.97497 9.10408 0.578372 8.29454C0.181774 7.485 0 6.51025 0 5.35376C0 4.19728 0.198299 3.27209 0.594897 2.46255C0.991495 1.65302 1.53682 1.04173 2.23086 0.61218C2.92491 0.199151 3.7181 -0.015625 4.61045 -0.015625C5.28797 -0.015625 5.86634 0.0835022 6.36209 0.265235L6.37861 0.281757Z" fill="#FFCC32"/>
<path d="M21.4682 6.57566V10.4912H19.0391V0.248047H22.3936C23.7982 0.248047 24.8558 0.512386 25.5499 1.02454C26.2604 1.5367 26.6075 2.32972 26.6075 3.37055C26.6075 4.0314 26.4422 4.5766 26.1282 5.00615C25.8143 5.4357 25.3185 5.81569 24.641 6.12959L27.2519 10.4912H24.5088L22.4101 6.57566H21.4682ZM22.4928 4.90702C23.0381 4.90702 23.4512 4.79138 23.7156 4.54356C23.98 4.29574 24.1287 3.89923 24.1287 3.37055C24.1287 2.87492 23.98 2.51145 23.6991 2.29668C23.4016 2.06538 22.9555 1.94973 22.3606 1.94973H21.4847V4.90702H22.5093H22.4928Z" fill="#FFCC32"/>
<path d="M40.1256 8.29387L39.6133 10.4912H37.1016L40.1752 0.248047H43.1166L46.2068 10.5077H43.6289L43.1166 8.31039H40.1091L40.1256 8.29387ZM41.6129 2.01581L40.5387 6.54262H42.7035L41.6294 2.01581H41.6129Z" fill="#FFCC32"/>
<path d="M59.4604 1.98277V4.70877H62.4514V6.4435H59.4604V10.5077H57.0312V0.248047H63.1455L62.8976 1.98277H59.4604Z" fill="#FFCC32"/>
<path d="M78.5575 2.11494V10.5077H76.1284V2.11494H73.4844V0.248047H81.3337L81.1024 2.11494H78.574H78.5575Z" fill="#FFCC32"/>
<path d="M6.9378 22.3376C7.68142 22.8993 8.0615 23.7419 8.0615 24.8323C8.0615 25.9227 7.69795 26.8644 6.95433 27.4427C6.21071 28.0209 5.23574 28.3183 3.99637 28.3183H2.8892V31.7382H0.476562V21.4785H3.79807C5.15311 21.4785 6.19418 21.7594 6.95433 22.3211L6.9378 22.3376ZM5.10354 26.1871C5.40099 25.9227 5.54971 25.4766 5.54971 24.8488C5.54971 23.775 4.95481 23.2298 3.74849 23.2298H2.8892V26.5836H3.79807C4.37644 26.5836 4.80609 26.4514 5.10354 26.1705V26.1871Z" fill="#FFCC32"/>
<path d="M21.8432 27.8227V31.7382H19.4141V21.4785H22.7686C24.1732 21.4785 25.2143 21.7429 25.9249 22.255C26.6354 22.7672 26.9825 23.5602 26.9825 24.601C26.9825 25.2619 26.8172 25.8071 26.5032 26.2366C26.1893 26.6662 25.6935 27.0462 25.016 27.3601L27.6269 31.7217H24.8838L22.7851 27.8061H21.8432V27.8227ZM22.8678 26.154C23.4131 26.154 23.8097 26.0384 24.0906 25.7905C24.3715 25.5427 24.5037 25.1627 24.5037 24.6175C24.5037 24.1219 24.355 23.7584 24.0741 23.5437C23.7766 23.3124 23.3305 23.1967 22.7356 23.1967H21.8597V26.154H22.8843H22.8678Z" fill="#FFCC32"/>
<path d="M41.0307 23.2299V25.6916H44.187V27.3933H41.0307V30.0201H44.8976V31.7714H38.6016V21.5117H44.8976L44.6497 23.2464H41.0307V23.2299Z" fill="#FFCC32"/>
<path d="M64.2477 31.7538L64.066 27.7392C64.0164 26.7479 63.9999 25.8723 63.9999 25.1123C63.9999 24.5671 63.9999 24.0384 64.0494 23.5593L62.463 30.6799H60.1661L58.4805 23.5593C58.5466 24.4349 58.5632 25.261 58.5632 26.0375C58.5632 26.5992 58.5632 27.1774 58.5136 27.7722L58.3318 31.7538H55.9688L56.7454 21.4941H59.8025L61.3393 28.4496L62.777 21.4941H65.8506L66.6273 31.7538H64.2477Z" fill="#FFCC32"/>
<path d="M78.2656 31.7538V21.4941H80.6948V31.7538H78.2656Z" fill="#FFCC32"/>
<path d="M95.101 23.2297V25.6913H98.2573V27.393H95.101V30.0199H98.9679V31.7711H92.6719V21.5115H98.9679L98.72 23.2462H95.101V23.2297Z" fill="#FFCC32"/>
<path d="M112.945 27.8227V31.7382H110.516V21.4785H113.87C115.275 21.4785 116.332 21.7429 117.026 22.255C117.737 22.7672 118.084 23.5602 118.084 24.601C118.084 25.2619 117.919 25.8071 117.605 26.2366C117.291 26.6662 116.795 27.0462 116.118 27.3601L118.729 31.7217H115.985L113.887 27.8061H112.945V27.8227ZM113.969 26.154C114.515 26.154 114.928 26.0384 115.192 25.7905C115.457 25.5427 115.605 25.1627 115.605 24.6175C115.605 24.1219 115.457 23.7584 115.176 23.5437C114.878 23.3124 114.432 23.1967 113.837 23.1967H112.961V26.154H113.986H113.969Z" fill="#FFCC32"/>
<path d="M132.132 23.2299V25.6916H135.289V27.3933H132.132V30.0201H135.999V31.7714H129.703V21.5117H135.999L135.751 23.2464H132.149L132.132 23.2299Z" fill="#FFCC32"/>
<path d="M7.5988 48.3264C8.02845 48.7063 8.24327 49.2681 8.24327 50.0115C8.24327 51.1019 7.84667 51.8784 7.07 52.3245C6.29333 52.7706 5.18616 53.0019 3.78154 53.0019H0.476562V42.7422H3.38495C4.82261 42.7422 5.92978 42.9404 6.68993 43.3535C7.45007 43.7665 7.83015 44.4273 7.83015 45.3525C7.83015 45.9473 7.64837 46.4429 7.28482 46.8064C6.92128 47.1699 6.4751 47.4342 5.94631 47.5499C6.62383 47.682 7.18568 47.9298 7.61532 48.3098L7.5988 48.3264ZM2.90572 46.8394H3.81459C4.83914 46.8394 5.35141 46.4264 5.35141 45.6004C5.35141 45.1873 5.21921 44.8899 4.93829 44.7247C4.65736 44.5595 4.22772 44.4604 3.6163 44.4604H2.90572V46.8394ZM5.23574 50.9532C5.56623 50.755 5.73148 50.408 5.73148 49.8793C5.73148 48.9376 5.13659 48.4585 3.96332 48.4585H2.8892V51.2341H3.78154C4.42602 51.2341 4.90524 51.135 5.23574 50.9532Z" fill="#FFCC32"/>
<path d="M21.2506 50.787L20.7383 52.9843H18.2266L21.3167 42.7246H24.2582L27.3483 52.9843H24.7704L24.2582 50.787H21.2506ZM22.7379 44.5089L21.6637 49.0357H23.8285L22.7544 44.5089H22.7379Z" fill="#FFCC32"/>
<path d="M40.5854 49.0687V52.9843H38.1562V42.7246H41.5108C42.9154 42.7246 43.973 42.9889 44.6671 43.5011C45.3776 44.0133 45.7247 44.8063 45.7247 45.8471C45.7247 46.508 45.5594 47.0532 45.2454 47.4827C44.9315 47.9123 44.4357 48.2923 43.7582 48.6062L46.3691 52.9678H43.626L41.5273 49.0522H40.5854V49.0687ZM41.61 47.4001C42.1553 47.4001 42.5684 47.2845 42.8328 47.0366C43.0972 46.7888 43.2459 46.4088 43.2459 45.8636C43.2459 45.368 43.0972 45.0045 42.8163 44.7898C42.5354 44.575 42.0727 44.4428 41.4778 44.4428H40.6019V47.4001H41.6265H41.61Z" fill="#FFCC32"/>
</g>
<defs>
<clipPath id="clip0_212_1008">
<rect width="136" height="53" fill="white"/>
</clipPath>
</defs>
</svg>
