<svg width="86" height="11" viewBox="0 0 86 11" fill="none" xmlns="http://www.w3.org/2000/svg">
<g clip-path="url(#clip0_212_1026)">
<path d="M27.0006 0.338935C27.5857 0.554622 28.1091 0.893557 28.5864 1.35574L27.4163 2.69608C26.7081 2.11064 25.9537 1.81793 25.1378 1.81793C24.7067 1.81793 24.368 1.91036 24.1062 2.07983C23.8599 2.2493 23.7214 2.5112 23.7214 2.85014C23.7214 3.08123 23.7829 3.26611 23.8907 3.42017C23.9985 3.57423 24.1986 3.71288 24.4757 3.83613C24.7529 3.97479 25.1839 4.12885 25.7536 4.29832C26.8159 4.63725 27.6011 5.06863 28.1091 5.56162C28.6172 6.05462 28.8635 6.76331 28.8635 7.68767C28.8635 8.35014 28.6941 8.92017 28.3708 9.41317C28.0321 9.90616 27.5549 10.3067 26.939 10.584C26.3078 10.8613 25.5688 11 24.7221 11C23.8753 11 23.1055 10.8613 22.4435 10.584C21.7815 10.3067 21.2119 9.95238 20.75 9.4902L22.0124 8.10364C22.7822 8.79692 23.6598 9.15126 24.6451 9.15126C25.1532 9.15126 25.5688 9.04342 25.8613 8.81233C26.1539 8.58123 26.3078 8.27311 26.3078 7.87255C26.3078 7.61064 26.2462 7.39496 26.1385 7.21008C26.0307 7.04062 25.8306 6.87115 25.5688 6.73249C25.2917 6.59384 24.9068 6.43978 24.3834 6.28571C23.2287 5.93137 22.3973 5.5 21.9047 4.9916C21.412 4.48319 21.1657 3.82073 21.1657 3.03501C21.1657 2.43417 21.335 1.89496 21.6429 1.43277C21.9663 0.970588 22.4127 0.616246 22.9824 0.369747C23.552 0.123249 24.214 0 24.9376 0C25.7228 0 26.4002 0.107842 26.9852 0.338935H27.0006Z" fill="#FFCC32"/>
<path d="M45.9094 1.12484C46.6792 1.69486 47.0641 2.55761 47.0641 3.68226C47.0641 4.80691 46.6946 5.74668 45.9402 6.34753C45.1858 6.94837 44.1851 7.24108 42.9227 7.24108H41.7834V10.7383H39.3047V0.262091H42.6917C44.0773 0.262091 45.1396 0.554808 45.9094 1.12484ZM44.0311 5.05341C44.3391 4.7761 44.493 4.31391 44.493 3.68226C44.493 2.58842 43.8772 2.0338 42.6455 2.0338H41.768V5.46937H42.6917C43.2768 5.46937 43.7232 5.33072 44.0311 5.05341Z" fill="#FFCC32"/>
<path d="M64.7199 5.96259C65.1509 6.34774 65.3819 6.91777 65.3819 7.68808C65.3819 8.81273 64.9816 9.59844 64.181 10.0606C63.3804 10.5228 62.2566 10.7539 60.8248 10.7539H57.4531V0.277716H60.4091C61.8871 0.277716 63.0109 0.493402 63.7807 0.909368C64.5505 1.32533 64.9508 2.01861 64.9508 2.95839C64.9508 3.57463 64.7661 4.06763 64.3966 4.45279C64.0271 4.83794 63.5652 5.08444 63.0263 5.22309C63.7191 5.36175 64.2888 5.60825 64.7199 5.9934V5.96259ZM62.3028 8.64326C62.6415 8.44298 62.8108 8.08864 62.8108 7.54942C62.8108 6.57884 62.2104 6.10124 60.9941 6.10124H59.901V8.95139H60.8094C61.4714 8.95139 61.964 8.85895 62.3028 8.65867V8.64326ZM59.9164 4.45279H60.8402C61.8871 4.45279 62.4105 4.03682 62.4105 3.18948C62.4105 2.77351 62.272 2.46539 61.9948 2.29592C61.7177 2.12645 61.2712 2.03402 60.6554 2.03402H59.9318V4.46819L59.9164 4.45279Z" fill="#FFCC32"/>
<path d="M4.17222 9.875H2.30934L0 5.49965L2.30934 1.13971H4.17222L6.46617 5.48424L4.17222 9.875ZM3.23308 8.68873L4.78804 5.49965L3.23308 2.32598L1.66273 5.48424L3.23308 8.68873Z" fill="#FFCC32"/>
<path d="M83.7035 9.875H81.8406L79.5312 5.49965L81.8406 1.13971H83.7035L85.9974 5.48424L83.7035 9.85959V9.875ZM82.7643 8.68873L84.3193 5.49965L82.7643 2.32598L81.194 5.48424L82.7643 8.68873Z" fill="#FFCC32"/>
</g>
<defs>
<clipPath id="clip0_212_1026">
<rect width="11" height="86" fill="white" transform="matrix(0 -1 1 0 0 11)"/>
</clipPath>
</defs>
</svg>
